<svg xmlns="http://www.w3.org/2000/svg" xmlns:xlink="http://www.w3.org/1999/xlink" width="1920" height="1224" viewBox="0 0 1920 1224">
  <defs>
    <clipPath id="clip-path">
      <rect id="Rect치ngulo_1493" data-name="Rect치ngulo 1493" width="1920" height="1224" transform="translate(0 2373)" fill="#fff" stroke="#707070" stroke-width="1"/>
    </clipPath>
  </defs>
  <g id="background-azul" transform="translate(0 -2373)" clip-path="url(#clip-path)">
    <path id="Sustracci칩n_1" data-name="Sustracci칩n 1" d="M1585.1,1935.3h-.037c-13.655,0-27.652-.529-41.6-1.569-14.364-1.071-29.083-2.714-43.749-4.883-15.074-2.23-30.521-5.08-45.911-8.471-15.8-3.482-31.984-7.631-48.089-12.331-16.526-4.823-33.443-10.362-50.28-16.463-17.255-6.253-34.914-13.275-52.488-20.869-17.995-7.777-36.4-16.372-54.711-25.548-18.738-9.391-37.9-19.652-56.948-30.5C970.582,1689,793.964,1627.911,651.345,1627.911c-14.583,0-29.077.644-43.078,1.915-13.519,1.227-26.989,3.075-40.035,5.494-12.551,2.327-25.1,5.253-37.287,8.7-11.668,3.3-23.388,7.172-34.835,11.522-10.885,4.137-21.88,8.838-32.678,13.972-10.181,4.84-20.549,10.238-30.817,16.043a642.252,642.252,0,0,0-57.231,36.8,156.109,156.109,0,0,0-20.159,17.2,176.315,176.315,0,0,0-17.247,20.383,209.836,209.836,0,0,0-14.531,23.146,257.2,257.2,0,0,0-12.013,25.5c-9.589-7.968-18.7-16.22-27.075-24.526-8.506-8.434-16.5-17.167-23.76-25.954a310.542,310.542,0,0,1-20.266-27.422,277.907,277.907,0,0,1-16.593-28.929A258.738,258.738,0,0,1,211,1671.276a252.571,252.571,0,0,1-8.71-32.063,259.362,259.362,0,0,1-4.5-33.69,280.263,280.263,0,0,1-.11-35.356c8.85-149.43,16.594-267.863,25.621-360.159,4.593-46.966,9.405-86.064,14.711-119.53,5.484-34.593,11.554-63.573,18.555-88.594,6.992-24.988,14.95-46.162,24.33-64.73a228.935,228.935,0,0,1,32.038-47.938,241.228,241.228,0,0,1,19.513-19.883c6.74-6.145,13.99-12.143,22.164-18.337,13.953-10.571,30.375-21.542,53.25-35.573,18.9-11.594,36.455-21.346,53.663-29.811,9.517-4.682,19.086-9.036,28.439-12.942,9.892-4.132,19.909-7.915,29.773-11.245,10.348-3.493,20.881-6.607,31.3-9.254,10.873-2.762,21.986-5.107,33.031-6.972,11.469-1.936,23.23-3.416,34.955-4.4,12.13-1.016,24.6-1.531,37.076-1.531a496.616,496.616,0,0,1,51.659,2.771c18.146,1.907,36.989,4.848,56.006,8.74,19.655,4.023,40.106,9.187,60.785,15.349,21.309,6.349,43.514,13.952,66,22.6,23.115,8.889,47.22,19.147,71.645,30.489,25.058,11.636,51.209,24.764,77.725,39.019,27.156,14.6,55.5,30.813,84.238,48.191,29.39,17.771,60.069,37.285,91.184,58C1372.755,1069.242,1523,1122.385,1661.9,1122.385c185.777,0,306.278-95.01,361.572-151.644,14.449-14.8,30.467-34.248,49.015-56.77,80.869-98.193,203.08-246.583,396.749-246.583,10.323,0,20.87.429,31.349,1.275,10.723.866,21.682,2.193,32.572,3.943,11.132,1.789,22.513,4.073,33.826,6.789,11.544,2.77,23.359,6.071,35.114,9.811a218.953,218.953,0,0,1,21.3,8,195.488,195.488,0,0,1,19.261,9.712,180.771,180.771,0,0,1,17.291,11.334,172.206,172.206,0,0,1,28.967,27.173,179.811,179.811,0,0,1,11.824,15.658,201.848,201.848,0,0,1,18.7,35.008,257.858,257.858,0,0,1,13.617,43.858,350.586,350.586,0,0,1,6.9,48.186,479.749,479.749,0,0,1,.994,51.526c-.547,17.09-1.93,35.218-4.11,53.879-7.542,64.557-24.826,138.337-51.373,219.289-10.427,31.8-22.329,64.8-35.373,98.083-10.434,26.622-21.618,53.485-33.242,79.841-19.823,44.944-34.181,73.075-34.324,73.354l-46.417,52.682a135.711,135.711,0,0,0-16.616-17.4,143.8,143.8,0,0,0-20.268-14.789,166.518,166.518,0,0,0-24.124-11.97,206.988,206.988,0,0,0-28.187-8.941,606.753,606.753,0,0,0-65.71-12.328,464.831,464.831,0,0,0-58.765-3.905c-11.96,0-23.795.534-35.175,1.586-11.06,1.023-22,2.565-32.517,4.583a308.467,308.467,0,0,0-30,7.318,290.49,290.49,0,0,0-27.633,9.789c-8.635,3.565-17.181,7.6-25.4,12-7.926,4.238-15.771,8.93-23.319,13.945-7.251,4.816-14.443,10.074-21.377,15.627-6.63,5.311-13.217,11.047-19.578,17.049-22.234,20.982-42.9,46.219-63.181,77.151-17.66,26.935-32.629,54.523-45.836,78.864l0,.008-.012.022c-8.846,16.3-17.2,31.7-25.347,45.071-8.84,14.507-24.47,37.177-48.733,62.79a449.817,449.817,0,0,1-36.1,34.088,451.554,451.554,0,0,1-156.823,86.212c-10.923,3.421-22.155,6.481-33.385,9.094-11.621,2.7-23.565,5.006-35.5,6.842-12.33,1.9-24.991,3.346-37.63,4.31C1611.838,1934.8,1598.455,1935.3,1585.1,1935.3Z" transform="translate(-373.435 1662.166)" fill="#083971"/>
  </g>
</svg>
