<svg xmlns="http://www.w3.org/2000/svg" width="115" height="88.364" viewBox="0 0 115 88.364">
  <path id="comillas" d="M34.059-23.636,57.313-73.314l1.057-1.9a26.619,26.619,0,0,0,1.9-10.358A26.663,26.663,0,0,0,33.425-112,26.71,26.71,0,0,0,7-85.575,26.663,26.663,0,0,0,33.425-58.728h2.537L22.221-28.921Zm61.728,0L119.04-73.314l.634-1.9A23.338,23.338,0,0,0,122-85.575C122-99.95,109.528-112,95.153-112A26.571,26.571,0,0,0,68.728-85.575,26.528,26.528,0,0,0,95.153-58.728h2.537L83.949-28.921Z" transform="translate(-7 112)" fill="#acacac"/>
</svg>
