<svg xmlns="http://www.w3.org/2000/svg" xmlns:xlink="http://www.w3.org/1999/xlink" width="1922.667" height="361.042" viewBox="0 0 1922.667 361.042">
  <defs>
    <linearGradient id="linear-gradient" x1="-2.866" y1="0.5" x2="33.022" y2="0.5" gradientUnits="objectBoundingBox">
      <stop offset="0" stop-color="#213a70"/>
      <stop offset="0.109" stop-color="#1f427e"/>
      <stop offset="0.517" stop-color="#1861b0"/>
      <stop offset="0.827" stop-color="#fff"/>
      <stop offset="1" stop-color="#fff"/>
    </linearGradient>
    <linearGradient id="linear-gradient-31" x1="0.767" y1="1" x2="0.325" y2="1" gradientUnits="objectBoundingBox">
      <stop offset="0" stop-color="#fff"/>
      <stop offset="1" stop-color="#1f427e"/>
    </linearGradient>
  </defs>
  <g id="edificios" transform="translate(-3.88 -274.078)">
    <g id="Grupo_81" data-name="Grupo 81" transform="translate(105.035 297.926)">
      <g id="Grupo_69" data-name="Grupo 69">
        <path id="Trazado_286" data-name="Trazado 286" d="M181.786,345.416H168.667a10.991,10.991,0,0,1-10.978-10.979V321.318a10.991,10.991,0,0,1,10.978-10.978h13.118a10.991,10.991,0,0,1,10.978,10.978v13.118A10.991,10.991,0,0,1,181.786,345.416ZM168.667,315.6a5.723,5.723,0,0,0-5.717,5.717v13.118a5.724,5.724,0,0,0,5.717,5.718h13.118a5.724,5.724,0,0,0,5.717-5.718V321.318a5.723,5.723,0,0,0-5.717-5.717Z" transform="translate(-157.689 -310.34)" fill="url(#linear-gradient)"/>
      </g>
      <g id="Grupo_70" data-name="Grupo 70" transform="translate(54.367)">
        <path id="Trazado_287" data-name="Trazado 287" d="M264.452,345.416H251.334a10.991,10.991,0,0,1-10.979-10.979V321.318a10.991,10.991,0,0,1,10.979-10.978h13.118a10.991,10.991,0,0,1,10.979,10.978v13.118A10.991,10.991,0,0,1,264.452,345.416ZM251.334,315.6a5.724,5.724,0,0,0-5.718,5.717v13.118a5.724,5.724,0,0,0,5.718,5.718h13.118a5.724,5.724,0,0,0,5.718-5.718V321.318a5.724,5.724,0,0,0-5.718-5.717Z" transform="translate(-240.355 -310.34)" fill="url(#linear-gradient)"/>
      </g>
      <g id="Grupo_71" data-name="Grupo 71" transform="translate(0 55.683)">
        <path id="Trazado_288" data-name="Trazado 288" d="M181.786,430.082H168.667A10.991,10.991,0,0,1,157.689,419.1V405.985a10.991,10.991,0,0,1,10.978-10.978h13.118a10.991,10.991,0,0,1,10.978,10.978V419.1A10.991,10.991,0,0,1,181.786,430.082Zm-13.118-29.814a5.723,5.723,0,0,0-5.717,5.717V419.1a5.723,5.723,0,0,0,5.717,5.717h13.118A5.723,5.723,0,0,0,187.5,419.1V405.985a5.723,5.723,0,0,0-5.717-5.717Z" transform="translate(-157.689 -395.007)" fill="url(#linear-gradient)"/>
      </g>
      <g id="Grupo_72" data-name="Grupo 72" transform="translate(54.367 55.683)">
        <path id="Trazado_289" data-name="Trazado 289" d="M264.452,430.082H251.334A10.991,10.991,0,0,1,240.355,419.1V405.985a10.991,10.991,0,0,1,10.979-10.978h13.118a10.991,10.991,0,0,1,10.979,10.978V419.1A10.991,10.991,0,0,1,264.452,430.082Zm-13.118-29.814a5.724,5.724,0,0,0-5.718,5.717V419.1a5.724,5.724,0,0,0,5.718,5.717h13.118a5.724,5.724,0,0,0,5.718-5.717V405.985a5.724,5.724,0,0,0-5.718-5.717Z" transform="translate(-240.355 -395.007)" fill="url(#linear-gradient)"/>
      </g>
      <g id="Grupo_73" data-name="Grupo 73" transform="translate(0 111.366)">
        <path id="Trazado_290" data-name="Trazado 290" d="M181.786,514.749H168.667a10.991,10.991,0,0,1-10.978-10.978V490.652a10.991,10.991,0,0,1,10.978-10.978h13.118a10.991,10.991,0,0,1,10.978,10.978v13.119A10.991,10.991,0,0,1,181.786,514.749Zm-13.118-29.814a5.723,5.723,0,0,0-5.717,5.717v13.119a5.723,5.723,0,0,0,5.717,5.717h13.118a5.723,5.723,0,0,0,5.717-5.717V490.652a5.723,5.723,0,0,0-5.717-5.717Z" transform="translate(-157.689 -479.674)" fill="url(#linear-gradient)"/>
      </g>
      <g id="Grupo_74" data-name="Grupo 74" transform="translate(54.367 111.366)">
        <path id="Trazado_291" data-name="Trazado 291" d="M264.452,514.749H251.334a10.991,10.991,0,0,1-10.979-10.978V490.652a10.991,10.991,0,0,1,10.979-10.978h13.118a10.991,10.991,0,0,1,10.979,10.978v13.119A10.991,10.991,0,0,1,264.452,514.749Zm-13.118-29.814a5.724,5.724,0,0,0-5.718,5.717v13.119a5.724,5.724,0,0,0,5.718,5.717h13.118a5.724,5.724,0,0,0,5.718-5.717V490.652a5.724,5.724,0,0,0-5.718-5.717Z" transform="translate(-240.355 -479.674)" fill="url(#linear-gradient)"/>
      </g>
      <g id="Grupo_75" data-name="Grupo 75" transform="translate(0 167.048)">
        <path id="Trazado_292" data-name="Trazado 292" d="M181.786,599.415H168.667a10.991,10.991,0,0,1-10.978-10.979V575.318a10.991,10.991,0,0,1,10.978-10.978h13.118a10.991,10.991,0,0,1,10.978,10.978v13.118A10.991,10.991,0,0,1,181.786,599.415ZM168.667,569.6a5.723,5.723,0,0,0-5.717,5.717v13.118a5.723,5.723,0,0,0,5.717,5.718h13.118a5.723,5.723,0,0,0,5.717-5.718V575.318a5.723,5.723,0,0,0-5.717-5.717Z" transform="translate(-157.689 -564.34)" fill="url(#linear-gradient)"/>
      </g>
      <g id="Grupo_76" data-name="Grupo 76" transform="translate(54.367 167.048)">
        <path id="Trazado_293" data-name="Trazado 293" d="M264.452,599.415H251.334a10.991,10.991,0,0,1-10.979-10.979V575.318a10.991,10.991,0,0,1,10.979-10.978h13.118a10.991,10.991,0,0,1,10.979,10.978v13.118A10.991,10.991,0,0,1,264.452,599.415ZM251.334,569.6a5.724,5.724,0,0,0-5.718,5.717v13.118a5.724,5.724,0,0,0,5.718,5.718h13.118a5.724,5.724,0,0,0,5.718-5.718V575.318a5.724,5.724,0,0,0-5.718-5.717Z" transform="translate(-240.355 -564.34)" fill="url(#linear-gradient)"/>
      </g>
      <g id="Grupo_77" data-name="Grupo 77" transform="translate(0 222.731)">
        <path id="Trazado_294" data-name="Trazado 294" d="M181.786,684.082H168.667A10.991,10.991,0,0,1,157.689,673.1V659.985a10.991,10.991,0,0,1,10.978-10.978h13.118a10.991,10.991,0,0,1,10.978,10.978V673.1A10.991,10.991,0,0,1,181.786,684.082Zm-13.118-29.813a5.723,5.723,0,0,0-5.717,5.717V673.1a5.723,5.723,0,0,0,5.717,5.717h13.118A5.723,5.723,0,0,0,187.5,673.1V659.985a5.723,5.723,0,0,0-5.717-5.717Z" transform="translate(-157.689 -649.007)" fill="url(#linear-gradient)"/>
      </g>
      <g id="Grupo_78" data-name="Grupo 78" transform="translate(54.367 222.731)">
        <path id="Trazado_295" data-name="Trazado 295" d="M264.452,684.082H251.334A10.991,10.991,0,0,1,240.355,673.1V659.985a10.991,10.991,0,0,1,10.979-10.978h13.118a10.991,10.991,0,0,1,10.979,10.978V673.1A10.991,10.991,0,0,1,264.452,684.082Zm-13.118-29.813a5.724,5.724,0,0,0-5.718,5.717V673.1a5.724,5.724,0,0,0,5.718,5.717h13.118a5.724,5.724,0,0,0,5.718-5.717V659.985a5.724,5.724,0,0,0-5.718-5.717Z" transform="translate(-240.355 -649.007)" fill="url(#linear-gradient)"/>
      </g>
      <g id="Grupo_79" data-name="Grupo 79" transform="translate(0 278.413)">
        <path id="Trazado_296" data-name="Trazado 296" d="M181.786,768.748H168.667a10.991,10.991,0,0,1-10.978-10.978V744.651a10.991,10.991,0,0,1,10.978-10.979h13.118a10.991,10.991,0,0,1,10.978,10.979v13.118A10.991,10.991,0,0,1,181.786,768.748Zm-13.118-29.813a5.723,5.723,0,0,0-5.717,5.717v13.118a5.723,5.723,0,0,0,5.717,5.717h13.118a5.723,5.723,0,0,0,5.717-5.717V744.651a5.723,5.723,0,0,0-5.717-5.717Z" transform="translate(-157.689 -733.673)" fill="url(#linear-gradient)"/>
      </g>
      <g id="Grupo_80" data-name="Grupo 80" transform="translate(54.367 278.413)">
        <path id="Trazado_297" data-name="Trazado 297" d="M264.452,768.748H251.334a10.991,10.991,0,0,1-10.979-10.978V744.651a10.991,10.991,0,0,1,10.979-10.979h13.118a10.991,10.991,0,0,1,10.979,10.979v13.118A10.991,10.991,0,0,1,264.452,768.748Zm-13.118-29.813a5.724,5.724,0,0,0-5.718,5.717v13.118a5.724,5.724,0,0,0,5.718,5.717h13.118a5.724,5.724,0,0,0,5.718-5.717V744.651a5.724,5.724,0,0,0-5.718-5.717Z" transform="translate(-240.355 -733.673)" fill="url(#linear-gradient)"/>
      </g>
    </g>
    <g id="Grupo_88" data-name="Grupo 88" transform="translate(253.147 465.648)">
      <g id="Grupo_82" data-name="Grupo 82">
        <path id="Trazado_298" data-name="Trazado 298" d="M403.639,595.781H392.57a9.685,9.685,0,0,1-9.674-9.674V575.039a9.686,9.686,0,0,1,9.674-9.675h11.069a9.685,9.685,0,0,1,9.674,9.675v11.069A9.684,9.684,0,0,1,403.639,595.781ZM392.57,570.625a4.418,4.418,0,0,0-4.413,4.414v11.069a4.418,4.418,0,0,0,4.413,4.412h11.069a4.417,4.417,0,0,0,4.413-4.412V575.039a4.418,4.418,0,0,0-4.413-4.414Z" transform="translate(-382.896 -565.364)" fill="url(#linear-gradient)"/>
      </g>
      <g id="Grupo_83" data-name="Grupo 83" transform="translate(45.872)">
        <path id="Trazado_299" data-name="Trazado 299" d="M473.389,595.781H462.32a9.685,9.685,0,0,1-9.674-9.674V575.039a9.686,9.686,0,0,1,9.674-9.675h11.069a9.685,9.685,0,0,1,9.674,9.675v11.069A9.684,9.684,0,0,1,473.389,595.781ZM462.32,570.625a4.418,4.418,0,0,0-4.413,4.414v11.069a4.418,4.418,0,0,0,4.413,4.412h11.069a4.417,4.417,0,0,0,4.413-4.412V575.039a4.418,4.418,0,0,0-4.413-4.414Z" transform="translate(-452.646 -565.364)" fill="url(#linear-gradient)"/>
      </g>
      <g id="Grupo_84" data-name="Grupo 84" transform="translate(0 46.982)">
        <path id="Trazado_300" data-name="Trazado 300" d="M403.639,667.219H392.57a9.685,9.685,0,0,1-9.674-9.674V646.476a9.685,9.685,0,0,1,9.674-9.674h11.069a9.685,9.685,0,0,1,9.674,9.674v11.068A9.685,9.685,0,0,1,403.639,667.219ZM392.57,642.063a4.418,4.418,0,0,0-4.413,4.413v11.068a4.418,4.418,0,0,0,4.413,4.413h11.069a4.417,4.417,0,0,0,4.413-4.413V646.476a4.417,4.417,0,0,0-4.413-4.413Z" transform="translate(-382.896 -636.802)" fill="url(#linear-gradient)"/>
      </g>
      <g id="Grupo_85" data-name="Grupo 85" transform="translate(45.872 46.982)">
        <path id="Trazado_301" data-name="Trazado 301" d="M473.389,667.219H462.32a9.685,9.685,0,0,1-9.674-9.674V646.476a9.685,9.685,0,0,1,9.674-9.674h11.069a9.685,9.685,0,0,1,9.674,9.674v11.068A9.685,9.685,0,0,1,473.389,667.219ZM462.32,642.063a4.418,4.418,0,0,0-4.413,4.413v11.068a4.418,4.418,0,0,0,4.413,4.413h11.069a4.417,4.417,0,0,0,4.413-4.413V646.476a4.417,4.417,0,0,0-4.413-4.413Z" transform="translate(-452.646 -636.802)" fill="url(#linear-gradient)"/>
      </g>
      <g id="Grupo_86" data-name="Grupo 86" transform="translate(0 93.964)">
        <path id="Trazado_302" data-name="Trazado 302" d="M403.639,738.656H392.57a9.685,9.685,0,0,1-9.674-9.674V717.913a9.685,9.685,0,0,1,9.674-9.674h11.069a9.685,9.685,0,0,1,9.674,9.674v11.068A9.685,9.685,0,0,1,403.639,738.656ZM392.57,713.5a4.418,4.418,0,0,0-4.413,4.413v11.068a4.417,4.417,0,0,0,4.413,4.413h11.069a4.417,4.417,0,0,0,4.413-4.413V717.913a4.417,4.417,0,0,0-4.413-4.413Z" transform="translate(-382.896 -708.239)" fill="url(#linear-gradient)"/>
      </g>
      <g id="Grupo_87" data-name="Grupo 87" transform="translate(45.872 93.964)">
        <path id="Trazado_303" data-name="Trazado 303" d="M473.389,738.656H462.32a9.685,9.685,0,0,1-9.674-9.674V717.913a9.685,9.685,0,0,1,9.674-9.674h11.069a9.685,9.685,0,0,1,9.674,9.674v11.068A9.685,9.685,0,0,1,473.389,738.656ZM462.32,713.5a4.418,4.418,0,0,0-4.413,4.413v11.068a4.417,4.417,0,0,0,4.413,4.413h11.069a4.417,4.417,0,0,0,4.413-4.413V717.913a4.417,4.417,0,0,0-4.413-4.413Z" transform="translate(-452.646 -708.239)" fill="url(#linear-gradient)"/>
      </g>
    </g>
    <g id="Grupo_93" data-name="Grupo 93" transform="translate(571.671 557.721)">
      <g id="Grupo_89" data-name="Grupo 89" transform="translate(0 0)">
        <path id="Trazado_304" data-name="Trazado 304" d="M892.639,735.781H881.57a9.685,9.685,0,0,1-9.674-9.674V715.039a9.686,9.686,0,0,1,9.674-9.675h11.068a9.685,9.685,0,0,1,9.674,9.675v11.069A9.684,9.684,0,0,1,892.639,735.781ZM881.57,710.625a4.418,4.418,0,0,0-4.413,4.414v11.069a4.418,4.418,0,0,0,4.413,4.412h11.068a4.417,4.417,0,0,0,4.413-4.412V715.039a4.418,4.418,0,0,0-4.413-4.414Z" transform="translate(-871.896 -705.364)" fill="url(#linear-gradient)"/>
      </g>
      <g id="Grupo_90" data-name="Grupo 90" transform="translate(45.872 0)">
        <path id="Trazado_305" data-name="Trazado 305" d="M962.389,735.781H951.32a9.685,9.685,0,0,1-9.674-9.674V715.039a9.686,9.686,0,0,1,9.674-9.675h11.069a9.685,9.685,0,0,1,9.674,9.675v11.069A9.684,9.684,0,0,1,962.389,735.781ZM951.32,710.625a4.418,4.418,0,0,0-4.413,4.414v11.069a4.418,4.418,0,0,0,4.413,4.412h11.069a4.417,4.417,0,0,0,4.413-4.412V715.039a4.418,4.418,0,0,0-4.413-4.414Z" transform="translate(-941.646 -705.364)" fill="url(#linear-gradient)"/>
      </g>
      <g id="Grupo_91" data-name="Grupo 91" transform="translate(0 46.982)">
        <path id="Trazado_306" data-name="Trazado 306" d="M892.639,807.219H881.57a9.685,9.685,0,0,1-9.674-9.674V786.476a9.685,9.685,0,0,1,9.674-9.674h11.068a9.685,9.685,0,0,1,9.674,9.674v11.068A9.685,9.685,0,0,1,892.639,807.219ZM881.57,782.063a4.418,4.418,0,0,0-4.413,4.413v11.068a4.418,4.418,0,0,0,4.413,4.413h11.068a4.417,4.417,0,0,0,4.413-4.413V786.476a4.417,4.417,0,0,0-4.413-4.413Z" transform="translate(-871.896 -776.802)" fill="url(#linear-gradient)"/>
      </g>
      <g id="Grupo_92" data-name="Grupo 92" transform="translate(45.872 46.982)">
        <path id="Trazado_307" data-name="Trazado 307" d="M962.389,807.219H951.32a9.685,9.685,0,0,1-9.674-9.674V786.476a9.685,9.685,0,0,1,9.674-9.674h11.069a9.685,9.685,0,0,1,9.674,9.674v11.068A9.685,9.685,0,0,1,962.389,807.219ZM951.32,782.063a4.418,4.418,0,0,0-4.413,4.413v11.068a4.418,4.418,0,0,0,4.413,4.413h11.069a4.417,4.417,0,0,0,4.413-4.413V786.476a4.417,4.417,0,0,0-4.413-4.413Z" transform="translate(-941.646 -776.802)" fill="url(#linear-gradient)"/>
      </g>
    </g>
    <g id="Grupo_96" data-name="Grupo 96" transform="translate(722.813 554.433)">
      <g id="Grupo_94" data-name="Grupo 94" transform="translate(0 0)">
        <path id="Trazado_308" data-name="Trazado 308" d="M1118.9,724.2h-8.174a7.841,7.841,0,0,1-7.833-7.832V708.2a7.843,7.843,0,0,1,7.833-7.833h8.174a7.842,7.842,0,0,1,7.833,7.833v8.175A7.841,7.841,0,0,1,1118.9,724.2Zm-8.174-18.579a2.575,2.575,0,0,0-2.572,2.572v8.175a2.574,2.574,0,0,0,2.572,2.571h8.174a2.574,2.574,0,0,0,2.572-2.571V708.2a2.574,2.574,0,0,0-2.572-2.572Z" transform="translate(-1102.896 -700.364)" fill="url(#linear-gradient)"/>
      </g>
      <g id="Grupo_95" data-name="Grupo 95" transform="translate(33.88 0)">
        <path id="Trazado_309" data-name="Trazado 309" d="M1170.419,724.2h-8.175a7.841,7.841,0,0,1-7.833-7.832V708.2a7.843,7.843,0,0,1,7.833-7.833h8.175a7.842,7.842,0,0,1,7.833,7.833v8.175A7.841,7.841,0,0,1,1170.419,724.2Zm-8.175-18.579a2.575,2.575,0,0,0-2.572,2.572v8.175a2.574,2.574,0,0,0,2.572,2.571h8.175a2.574,2.574,0,0,0,2.572-2.571V708.2a2.575,2.575,0,0,0-2.572-2.572Z" transform="translate(-1154.411 -700.364)" fill="url(#linear-gradient)"/>
      </g>
    </g>
    <g id="Grupo_98" data-name="Grupo 98" transform="translate(788.523 554.433)">
      <g id="Grupo_97" data-name="Grupo 97" transform="translate(0 0)">
        <path id="Trazado_310" data-name="Trazado 310" d="M1219.239,724.2h-8.174a7.841,7.841,0,0,1-7.833-7.832V708.2a7.843,7.843,0,0,1,7.833-7.833h8.174a7.842,7.842,0,0,1,7.833,7.833v8.175A7.841,7.841,0,0,1,1219.239,724.2Zm-8.174-18.579a2.575,2.575,0,0,0-2.572,2.572v8.175a2.574,2.574,0,0,0,2.572,2.571h8.174a2.574,2.574,0,0,0,2.571-2.571V708.2a2.574,2.574,0,0,0-2.571-2.572Z" transform="translate(-1203.231 -700.364)" fill="url(#linear-gradient)"/>
      </g>
    </g>
    <g id="Grupo_99" data-name="Grupo 99" transform="translate(414.34 587.522)">
      <path id="Trazado_311" data-name="Trazado 311" d="M689.237,790.795H643.2a11.852,11.852,0,0,1-11.838-11.838V762.515A11.852,11.852,0,0,1,643.2,750.677h46.037a11.852,11.852,0,0,1,11.838,11.838v16.442A11.852,11.852,0,0,1,689.237,790.795ZM643.2,755.938a6.585,6.585,0,0,0-6.577,6.577v16.442a6.585,6.585,0,0,0,6.577,6.577h46.037a6.584,6.584,0,0,0,6.577-6.577V762.515a6.584,6.584,0,0,0-6.577-6.577Z" transform="translate(-631.362 -750.677)" fill="url(#linear-gradient)"/>
    </g>
    <g id="Grupo_100" data-name="Grupo 100" transform="translate(446.473 590.81)">
      <rect id="Rect치ngulo_1485" data-name="Rect치ngulo 1485" width="5.261" height="34.856" transform="translate(0 0)" fill="url(#linear-gradient)"/>
    </g>
    <g id="Grupo_101" data-name="Grupo 101" transform="translate(413.681 552.666)">
      <path id="Trazado_312" data-name="Trazado 312" d="M689.875,719.38H641.208a10.852,10.852,0,0,1,0-21.7h48.667a10.852,10.852,0,0,1,0,21.7Zm-48.667-16.442a5.59,5.59,0,0,0,0,11.18h48.667a5.59,5.59,0,0,0,0-11.18Z" transform="translate(-630.356 -697.677)" fill="url(#linear-gradient)"/>
    </g>
    <g id="Grupo_102" data-name="Grupo 102" transform="translate(446.473 557.269)">
      <rect id="Rect치ngulo_1486" data-name="Rect치ngulo 1486" width="5.261" height="14.469" fill="url(#linear-gradient)"/>
    </g>
    <g id="Grupo_103" data-name="Grupo 103" transform="translate(746.699 585.549)">
      <path id="Trazado_313" data-name="Trazado 313" d="M1168.293,791.741h-17.1a11.852,11.852,0,0,1-11.838-11.838V759.515a11.852,11.852,0,0,1,11.838-11.838h17.1a11.852,11.852,0,0,1,11.838,11.838V779.9A11.852,11.852,0,0,1,1168.293,791.741Zm-17.1-38.8a6.585,6.585,0,0,0-6.577,6.577V779.9a6.585,6.585,0,0,0,6.577,6.577h17.1a6.584,6.584,0,0,0,6.577-6.577V759.515a6.584,6.584,0,0,0-6.577-6.577Z" transform="translate(-1139.356 -747.677)" fill="url(#linear-gradient)"/>
    </g>
    <g id="Grupo_104" data-name="Grupo 104" transform="translate(3.88 274.078)">
      <path id="Trazado_314" data-name="Trazado 314" d="M1926.547,628.408l-1076.39,1.2a19.044,19.044,0,0,1-18.974-19.072v-55.19a13.79,13.79,0,0,0-13.7-12.821H718.695a13.791,13.791,0,0,0-13.74,13.811v49.32h-.046v6.853a16.357,16.357,0,1,1-32.713,0V555.257A13.8,13.8,0,0,0,658.5,542.53H559.716a13.791,13.791,0,0,0-13.74,13.811v49.32h-.054v6.853a16.357,16.357,0,1,1-32.713,0V555.166a13.821,13.821,0,0,0-13.685-12.636H400.737A13.791,13.791,0,0,0,387,556.341v49.32h-.388v4.551a19.044,19.044,0,0,1-18.974,19.072H358.8a19.044,19.044,0,0,1-18.974-19.072v-4.551h-.264V455.721a13.791,13.791,0,0,0-13.74-13.81H252.553a13.791,13.791,0,0,0-13.74,13.81V605.661h-.068v8.333a14.885,14.885,0,1,1-29.769,0V502.847c0-.466.023-.941.067-1.412V289.7a10.345,10.345,0,0,0-10.306-10.361H98.972A10.346,10.346,0,0,0,88.665,289.7v315.96h-.4v4.222a19.044,19.044,0,0,1-18.974,19.072H6.154a19.2,19.2,0,0,1-2.274-.141l.624-5.224a13.886,13.886,0,0,0,1.651.1H69.291a13.791,13.791,0,0,0,13.74-13.811V600.4h.4V289.7a15.6,15.6,0,0,1,15.541-15.622h99.765a15.6,15.6,0,0,1,15.54,15.622v212l-.014.135c-.034.338-.052.679-.052,1.012V613.993a9.651,9.651,0,1,0,19.3,0V600.4h.068V455.721a19.044,19.044,0,0,1,18.974-19.072h73.272A19.044,19.044,0,0,1,344.8,455.721V600.4h.264v9.812a13.791,13.791,0,0,0,13.74,13.811h8.833a13.791,13.791,0,0,0,13.74-13.811V600.4h.388V556.341a19.045,19.045,0,0,1,18.974-19.072h98.788a19.092,19.092,0,0,1,18.912,17.587l.007.2v57.455a11.123,11.123,0,1,0,22.245,0V600.4h.054V556.341a19.045,19.045,0,0,1,18.974-19.072H658.5a19.071,19.071,0,0,1,18.921,17.7l.006.187v57.354a11.123,11.123,0,1,0,22.245,0V600.4h.046V556.341a19.044,19.044,0,0,1,18.974-19.072h98.788a19.048,19.048,0,0,1,18.929,17.822l.005.17v55.28a13.791,13.791,0,0,0,13.74,13.811l1076.39-1.2Z" transform="translate(-3.88 -274.078)" fill="url(#linear-gradient-31)"/>
    </g>
  </g>
</svg>
