<svg id="background-inicio" xmlns="http://www.w3.org/2000/svg" xmlns:xlink="http://www.w3.org/1999/xlink" width="1920" height="1236" viewBox="0 0 1920 1236">
  <defs>
    <clipPath id="clip-path">
      <rect id="Rectángulo_1490" data-name="Rectángulo 1490" width="1920" height="1236" fill="#fff" stroke="#707070" stroke-width="1"/>
    </clipPath>
    <clipPath id="clip-path-2">
      <rect id="Rectángulo_1491" data-name="Rectángulo 1491" width="1920" height="725" transform="translate(0 248)" fill="#fff"/>
    </clipPath>
    <linearGradient id="linear-gradient" x1="-0.07" y1="0.97" x2="0.78" y2="0.312" gradientUnits="objectBoundingBox">
      <stop offset="0" stop-color="#213a70"/>
      <stop offset="0.109" stop-color="#1f427e"/>
      <stop offset="0.517" stop-color="#1861b0"/>
      <stop offset="0.827" stop-color="#1474cf"/>
      <stop offset="1" stop-color="#137cdb"/>
    </linearGradient>
    <linearGradient id="linear-gradient-2" x1="-7.51" y1="1.802" x2="34.798" y2="-5.074" xlink:href="#linear-gradient"/>
    <linearGradient id="linear-gradient-3" x1="-9.02" y1="2.047" x2="33.289" y2="-4.829" xlink:href="#linear-gradient"/>
    <linearGradient id="linear-gradient-4" x1="-7.259" y1="1.761" x2="35.049" y2="-5.115" xlink:href="#linear-gradient"/>
    <linearGradient id="linear-gradient-5" x1="-8.769" y1="2.006" x2="33.54" y2="-4.869" xlink:href="#linear-gradient"/>
    <linearGradient id="linear-gradient-6" x1="-7.008" y1="1.72" x2="35.299" y2="-5.155" xlink:href="#linear-gradient"/>
    <linearGradient id="linear-gradient-7" x1="-8.517" y1="1.965" x2="33.791" y2="-4.91" xlink:href="#linear-gradient"/>
    <linearGradient id="linear-gradient-8" x1="-6.757" y1="1.679" x2="35.551" y2="-5.196" xlink:href="#linear-gradient"/>
    <linearGradient id="linear-gradient-9" x1="-8.266" y1="1.925" x2="34.043" y2="-4.951" xlink:href="#linear-gradient"/>
    <linearGradient id="linear-gradient-10" x1="-6.506" y1="1.639" x2="35.802" y2="-5.237" xlink:href="#linear-gradient"/>
    <linearGradient id="linear-gradient-11" x1="-8.015" y1="1.884" x2="34.294" y2="-4.992" xlink:href="#linear-gradient"/>
    <linearGradient id="linear-gradient-12" x1="-6.254" y1="1.598" x2="36.053" y2="-5.278" xlink:href="#linear-gradient"/>
    <linearGradient id="linear-gradient-13" x1="-7.764" y1="1.843" x2="34.545" y2="-5.033" xlink:href="#linear-gradient"/>
    <linearGradient id="linear-gradient-14" x1="-29.289" y1="5.341" x2="13.017" y2="-1.534" xlink:href="#linear-gradient"/>
    <linearGradient id="linear-gradient-15" x1="-30.799" y1="5.587" x2="11.509" y2="-1.289" xlink:href="#linear-gradient"/>
    <linearGradient id="linear-gradient-16" x1="-29.038" y1="5.3" x2="13.268" y2="-1.575" xlink:href="#linear-gradient"/>
    <linearGradient id="linear-gradient-17" x1="-30.547" y1="5.546" x2="11.76" y2="-1.33" xlink:href="#linear-gradient"/>
    <linearGradient id="linear-gradient-18" x1="-28.787" y1="5.26" x2="13.52" y2="-1.616" xlink:href="#linear-gradient"/>
    <linearGradient id="linear-gradient-19" x1="-30.297" y1="5.505" x2="12.011" y2="-1.371" xlink:href="#linear-gradient"/>
    <linearGradient id="linear-gradient-20" x1="-28.535" y1="5.219" x2="13.771" y2="-1.657" xlink:href="#linear-gradient"/>
    <linearGradient id="linear-gradient-21" x1="-30.045" y1="5.464" x2="12.262" y2="-1.412" xlink:href="#linear-gradient"/>
    <linearGradient id="linear-gradient-22" x1="-28.285" y1="5.178" x2="14.022" y2="-1.698" xlink:href="#linear-gradient"/>
    <linearGradient id="linear-gradient-23" x1="-29.794" y1="5.423" x2="12.513" y2="-1.452" xlink:href="#linear-gradient"/>
    <linearGradient id="linear-gradient-24" x1="-12.542" y1="2.619" x2="36.24" y2="-5.308" xlink:href="#linear-gradient"/>
    <linearGradient id="linear-gradient-25" x1="-14.01" y1="2.858" x2="34.773" y2="-5.07" xlink:href="#linear-gradient"/>
    <linearGradient id="linear-gradient-26" x1="-12.297" y1="2.58" x2="36.484" y2="-5.348" xlink:href="#linear-gradient"/>
    <linearGradient id="linear-gradient-27" x1="-13.766" y1="2.818" x2="35.017" y2="-5.109" xlink:href="#linear-gradient"/>
    <linearGradient id="linear-gradient-28" x1="-12.053" y1="2.54" x2="36.729" y2="-5.388" xlink:href="#linear-gradient"/>
    <linearGradient id="linear-gradient-29" x1="-13.522" y1="2.779" x2="35.262" y2="-5.149" xlink:href="#linear-gradient"/>
    <linearGradient id="linear-gradient-30" x1="-22.357" y1="4.214" x2="26.428" y2="-3.714" xlink:href="#linear-gradient"/>
    <linearGradient id="linear-gradient-31" x1="-23.824" y1="4.453" x2="24.959" y2="-3.475" xlink:href="#linear-gradient"/>
    <linearGradient id="linear-gradient-32" x1="-22.112" y1="4.175" x2="26.671" y2="-3.753" xlink:href="#linear-gradient"/>
    <linearGradient id="linear-gradient-33" x1="-23.579" y1="4.413" x2="25.203" y2="-3.514" xlink:href="#linear-gradient"/>
    <linearGradient id="linear-gradient-34" x1="-34.767" y1="6.231" x2="27.461" y2="-3.881" xlink:href="#linear-gradient"/>
    <linearGradient id="linear-gradient-35" x1="-36.149" y1="6.456" x2="26.077" y2="-3.656" xlink:href="#linear-gradient"/>
    <linearGradient id="linear-gradient-36" x1="-37.46" y1="6.669" x2="24.766" y2="-3.443" xlink:href="#linear-gradient"/>
    <linearGradient id="linear-gradient-37" x1="-7.463" y1="2.748" x2="13.832" y2="-3.264" xlink:href="#linear-gradient"/>
    <linearGradient id="linear-gradient-38" x1="-104.546" y1="3.088" x2="176.429" y2="-3.835" xlink:href="#linear-gradient"/>
    <linearGradient id="linear-gradient-39" x1="-10.205" y1="3.594" x2="2.92" y2="-0.199" xlink:href="#linear-gradient"/>
    <linearGradient id="linear-gradient-40" x1="-228.654" y1="3.874" x2="52.341" y2="-0.263" xlink:href="#linear-gradient"/>
    <linearGradient id="linear-gradient-41" x1="-7.483" y1="4.703" x2="13.613" y2="-6.404" xlink:href="#linear-gradient"/>
    <linearGradient id="linear-gradient-42" x1="-105.852" y1="6.813" x2="175.111" y2="-9.864" xlink:href="#linear-gradient"/>
    <linearGradient id="linear-gradient-43" x1="-10.829" y1="6.889" x2="2.569" y2="-0.667" xlink:href="#linear-gradient"/>
    <linearGradient id="linear-gradient-44" x1="-10.764" y1="6.853" x2="2.634" y2="-0.703" xlink:href="#linear-gradient"/>
    <linearGradient id="linear-gradient-45" x1="-10.699" y1="6.816" x2="2.698" y2="-0.74" xlink:href="#linear-gradient"/>
    <linearGradient id="linear-gradient-46" x1="-10.634" y1="6.779" x2="2.763" y2="-0.776" xlink:href="#linear-gradient"/>
    <linearGradient id="linear-gradient-47" x1="-10.57" y1="6.743" x2="2.828" y2="-0.813" xlink:href="#linear-gradient"/>
    <linearGradient id="linear-gradient-48" x1="-10.505" y1="6.706" x2="2.893" y2="-0.85" xlink:href="#linear-gradient"/>
    <linearGradient id="linear-gradient-49" x1="-20.742" y1="3.695" x2="15.654" y2="-1.779" xlink:href="#linear-gradient"/>
  </defs>
  <g id="background" clip-path="url(#clip-path)">
    <path id="Sustracción_2" data-name="Sustracción 2" d="M1996,1848.065h-29.331l5.331-379h24ZM30.816,1509.852,24,786.066c.115-.1,11.755-10.319,33.8-25.249,12.987-8.8,27.013-17.5,41.69-25.88,18.348-10.472,37.768-20.454,57.72-29.668a857.456,857.456,0,0,1,162.042-55.548c16.4-3.874,33.2-7.352,49.947-10.337,17.624-3.141,35.667-5.822,53.629-7.969,18.837-2.252,38.1-3.977,57.264-5.129,20.031-1.2,40.5-1.815,60.852-1.815,22.392,0,45.269.739,67.995,2.2,23.68,1.519,47.861,3.861,71.873,6.961,24.961,3.223,50.431,7.355,75.7,12.28,26.217,5.11,52.959,11.219,79.485,18.156,22.961,6.005,45.843,11.307,68.011,15.758,21.616,4.341,43.145,7.991,63.988,10.85,20.31,2.786,40.517,4.9,60.061,6.269,19.028,1.338,37.947,2.017,56.229,2.017,20.257,0,40.329-.832,59.659-2.472,18.691-1.586,37.191-3.971,54.985-7.089,17.179-3.009,34.162-6.782,50.475-11.214,15.723-4.271,31.243-9.267,46.128-14.849,53.958-20.233,102.507-49.141,144.3-85.919a453.178,453.178,0,0,0,87.788-104.788,432.257,432.257,0,0,0,25.963-49.649,351.346,351.346,0,0,0,15.747-42.581c4.412-15.034,8.5-32.076,12.824-50.118,15.58-64.978,34.969-145.844,87.737-211.258a290.237,290.237,0,0,1,21.411-23.749,283.427,283.427,0,0,1,24.889-21.942,290.513,290.513,0,0,1,28.714-19.769,313.082,313.082,0,0,1,32.886-17.232A353.8,353.8,0,0,1,1815.2,22a416.13,416.13,0,0,1,42.271-11.064c15.1-3.136,31.074-5.636,47.485-7.433C1921.851,1.652,1939.7.5,1958,.066c1.836-.043,3.688-.065,5.505-.065a209.491,209.491,0,0,1,21.3,1.058,177.1,177.1,0,0,1,19.617,3.111,154.575,154.575,0,0,1,17.987,5.068,140.524,140.524,0,0,1,16.413,6.93,132.893,132.893,0,0,1,28.326,19.06,146.4,146.4,0,0,1,22.7,25.358,174.631,174.631,0,0,1,10.7,17.186,206.077,206.077,0,0,1,9.063,18.879,270.99,270.99,0,0,1,13.551,42.249,393.893,393.893,0,0,1,8.018,47.258c1.771,15.962,2.836,33.152,3.166,51.093,1.141,62.072-6.335,135.835-22.222,219.238-6.24,32.759-13.81,67.11-22.5,102.1-6.952,27.987-14.63,56.436-22.822,84.558-13.763,47.243-24.356,77.646-24.8,78.917l-46,0v33.353a161.743,161.743,0,0,0-26.552-6.265A201.748,201.748,0,0,0,1939.5,747c-1.8,0-3.649.022-5.5.065-18.3.431-36.149,1.587-53.045,3.436-16.41,1.8-32.386,4.3-47.484,7.432A416.028,416.028,0,0,0,1791.2,769a353.785,353.785,0,0,0-37.405,14.331,313.2,313.2,0,0,0-32.886,17.233,290.468,290.468,0,0,0-28.714,19.77,283.241,283.241,0,0,0-24.889,21.942,290.236,290.236,0,0,0-21.411,23.748c-52.768,65.415-72.157,146.281-87.737,211.258-4.326,18.041-8.411,35.081-12.824,50.119a351.077,351.077,0,0,1-15.75,42.579,432.082,432.082,0,0,1-25.968,49.647,453.284,453.284,0,0,1-87.8,104.789c-9.716,8.55-19.934,16.785-30.372,24.477-10.932,8.056-22.394,15.729-34.066,22.807-12.2,7.4-24.956,14.341-37.923,20.645-13.514,6.57-27.626,12.624-41.943,17.993-14.886,5.582-30.405,10.578-46.125,14.849-16.313,4.432-33.294,8.2-50.471,11.214-17.792,3.118-36.289,5.5-54.979,7.089-19.325,1.64-39.394,2.472-59.65,2.472-18.293,0-37.212-.678-56.232-2.016-19.543-1.374-39.748-3.482-60.052-6.267-20.837-2.858-42.364-6.508-63.983-10.849-22.169-4.452-45.055-9.755-68.022-15.762-26.515-6.935-53.256-13.043-79.48-18.154-25.272-4.926-50.743-9.057-75.708-12.281-24.012-3.1-48.2-5.442-71.879-6.962-22.731-1.458-45.607-2.2-67.993-2.2-110.516,0-216.174,17.638-314.038,52.426a810.574,810.574,0,0,0-104.442,45.472c-13.249,6.943-26.2,14.245-38.5,21.7-10.163,6.161-19.967,12.48-29.139,18.781Z" transform="translate(-34 -291.065)" fill="#ececec"/>
  </g>
  <g id="Enmascarar_grupo_3" data-name="Enmascarar grupo 3" clip-path="url(#clip-path-2)">
    <g id="Grupo_57" data-name="Grupo 57" transform="translate(-43.237 -100.701)">
      <g id="Grupo_2" data-name="Grupo 2" transform="translate(-19.763 406.211)">
        <g id="Elipse_3" data-name="Elipse 3" transform="translate(261.49 0)" fill="none" stroke="#083971" stroke-width="9">
          <circle cx="101.541" cy="101.541" r="101.541" stroke="none"/>
          <circle cx="101.541" cy="101.541" r="97.041" fill="none"/>
        </g>
        <rect id="Rectángulo_5" data-name="Rectángulo 5" width="70.989" height="95.251" rx="33" transform="translate(240.822 107.831)" fill="#ececec"/>
        <path id="Trazado_2" data-name="Trazado 2" d="M2619.4,1073.676H1814.8c-18.091,0-32.812-16.714-32.812-37.258v-5.969h-.684V555.139a27.054,27.054,0,0,0-27.023-27.023h-181.74a27.055,27.055,0,0,0-27.023,27.023v15.745a25.792,25.792,0,0,1,.185,3.049v466.088a25.856,25.856,0,1,1-51.712,0V654.177a20.739,20.739,0,0,0-20.539-17.246H1327.871a20.875,20.875,0,0,0-20.851,20.852v372.667h-.053v7.356a28.871,28.871,0,0,1-28.839,28.837h-15.9a28.869,28.869,0,0,1-28.837-28.837V954.4a20.886,20.886,0,0,0-20.793-19.352H1062.545a20.875,20.875,0,0,0-20.852,20.853v74.544h-.069v10.337a24.863,24.863,0,0,1-49.726,0V954.269a20.908,20.908,0,0,0-20.781-19.217H821.064a20.875,20.875,0,0,0-20.852,20.853v74.544h-.081v10.337a24.862,24.862,0,1,1-49.725,0v-86.66a20.933,20.933,0,0,0-20.768-19.074H579.586a20.875,20.875,0,0,0-20.852,20.853v74.544h-.59v6.859a28.871,28.871,0,0,1-28.839,28.837H515.89a28.87,28.87,0,0,1-28.837-28.837v-6.859h-.4V803.86A20.875,20.875,0,0,0,465.8,783.009H354.5a20.876,20.876,0,0,0-20.853,20.852v226.588h-.1v12.573a22.626,22.626,0,1,1-45.253,0V875.071c0-.705.035-1.423.1-2.133V552.989a15.655,15.655,0,0,0-15.636-15.638H121.222a15.657,15.657,0,0,0-15.638,15.638v477.46h-.608v6.362a28.871,28.871,0,0,1-28.837,28.839h-95.9v-7.985h95.9a20.876,20.876,0,0,0,20.852-20.853v-14.347H97.6V552.989a23.651,23.651,0,0,1,23.624-23.624H272.759a23.649,23.649,0,0,1,23.621,23.624V873.34l-.02.206a14.731,14.731,0,0,0-.081,1.525v167.951a14.641,14.641,0,1,0,29.282,0v-20.559h.1V803.86A28.87,28.87,0,0,1,354.5,775.023H465.8a28.869,28.869,0,0,1,28.838,28.837v218.6h.4v14.845a20.877,20.877,0,0,0,20.852,20.852h13.416a20.876,20.876,0,0,0,20.853-20.852v-14.845h.59V955.905a28.869,28.869,0,0,1,28.837-28.839H729.639A28.953,28.953,0,0,1,758.38,953.66l.012.307v86.819a16.877,16.877,0,1,0,33.754,0v-18.323h.081V955.905a28.87,28.87,0,0,1,28.837-28.839H971.117a28.922,28.922,0,0,1,28.757,26.77l.009.283v86.666a16.877,16.877,0,1,0,33.755,0v-18.323h.069V955.905a28.869,28.869,0,0,1,28.837-28.839H1212.6a28.887,28.887,0,0,1,28.771,26.947l.008.258V1037.8a20.875,20.875,0,0,0,20.852,20.852h15.9a20.875,20.875,0,0,0,20.853-20.852l.053-380.023a28.869,28.869,0,0,1,28.837-28.837h145.582a28.689,28.689,0,0,1,28.474,24.273l.051.628v386.174a17.87,17.87,0,1,0,35.741,0V573.933a17.915,17.915,0,0,0-.153-2.3l-.032-.5V555.139a35.048,35.048,0,0,1,35.009-35.009h181.74a35.048,35.048,0,0,1,35.009,35.009v467.325h.684v13.955c0,16.141,11.137,29.272,24.826,29.272h804.6Z" transform="translate(19.763 -423.596)" fill="url(#linear-gradient)"/>
      </g>
      <g id="Grupo_15" data-name="Grupo 15" transform="translate(129.619 548.018)">
        <g id="Grupo_3" data-name="Grupo 3">
          <path id="Trazado_3" data-name="Trazado 3" d="M128.907,607.183H109.083a16.626,16.626,0,0,1-16.607-16.607V570.753a16.625,16.625,0,0,1,16.607-16.607h19.824a16.625,16.625,0,0,1,16.606,16.607v19.823A16.626,16.626,0,0,1,128.907,607.183Zm-19.824-45.052a8.631,8.631,0,0,0-8.622,8.622v19.823a8.631,8.631,0,0,0,8.622,8.622h19.824a8.631,8.631,0,0,0,8.62-8.622V570.753a8.631,8.631,0,0,0-8.62-8.622Z" transform="translate(-92.476 -554.146)" fill="url(#linear-gradient-2)"/>
        </g>
        <g id="Grupo_4" data-name="Grupo 4" transform="translate(82.153)">
          <path id="Trazado_4" data-name="Trazado 4" d="M190.632,607.183H170.811A16.627,16.627,0,0,1,154.2,590.576V570.753a16.626,16.626,0,0,1,16.609-16.607h19.821a16.626,16.626,0,0,1,16.607,16.607v19.823A16.627,16.627,0,0,1,190.632,607.183Zm-19.821-45.052a8.632,8.632,0,0,0-8.623,8.622v19.823a8.632,8.632,0,0,0,8.623,8.622h19.821a8.631,8.631,0,0,0,8.622-8.622V570.753a8.631,8.631,0,0,0-8.622-8.622Z" transform="translate(-154.202 -554.146)" fill="url(#linear-gradient-3)"/>
        </g>
        <g id="Grupo_5" data-name="Grupo 5" transform="translate(0 84.14)">
          <path id="Trazado_5" data-name="Trazado 5" d="M128.907,670.4H109.083A16.626,16.626,0,0,1,92.476,653.8V633.974a16.626,16.626,0,0,1,16.607-16.609h19.824a16.626,16.626,0,0,1,16.606,16.609V653.8A16.626,16.626,0,0,1,128.907,670.4Zm-19.824-45.053a8.632,8.632,0,0,0-8.622,8.623V653.8a8.632,8.632,0,0,0,8.622,8.623h19.824a8.631,8.631,0,0,0,8.62-8.623V633.974a8.631,8.631,0,0,0-8.62-8.623Z" transform="translate(-92.476 -617.365)" fill="url(#linear-gradient-4)"/>
        </g>
        <g id="Grupo_6" data-name="Grupo 6" transform="translate(82.153 84.14)">
          <path id="Trazado_6" data-name="Trazado 6" d="M190.632,670.4H170.811A16.627,16.627,0,0,1,154.2,653.8V633.974a16.627,16.627,0,0,1,16.609-16.609h19.821a16.627,16.627,0,0,1,16.607,16.609V653.8A16.627,16.627,0,0,1,190.632,670.4Zm-19.821-45.053a8.632,8.632,0,0,0-8.623,8.623V653.8a8.632,8.632,0,0,0,8.623,8.623h19.821a8.632,8.632,0,0,0,8.622-8.623V633.974a8.632,8.632,0,0,0-8.622-8.623Z" transform="translate(-154.202 -617.365)" fill="url(#linear-gradient-5)"/>
        </g>
        <g id="Grupo_7" data-name="Grupo 7" transform="translate(0 168.281)">
          <path id="Trazado_7" data-name="Trazado 7" d="M128.907,733.624H109.083a16.626,16.626,0,0,1-16.607-16.609V697.194a16.626,16.626,0,0,1,16.607-16.609h19.824a16.626,16.626,0,0,1,16.606,16.609v19.821A16.626,16.626,0,0,1,128.907,733.624Zm-19.824-45.053a8.632,8.632,0,0,0-8.622,8.623v19.821a8.633,8.633,0,0,0,8.622,8.623h19.824a8.632,8.632,0,0,0,8.62-8.623V697.194a8.631,8.631,0,0,0-8.62-8.623Z" transform="translate(-92.476 -680.585)" fill="url(#linear-gradient-6)"/>
        </g>
        <g id="Grupo_8" data-name="Grupo 8" transform="translate(82.153 168.281)">
          <path id="Trazado_8" data-name="Trazado 8" d="M190.632,733.624H170.811A16.627,16.627,0,0,1,154.2,717.015V697.194a16.627,16.627,0,0,1,16.609-16.609h19.821a16.627,16.627,0,0,1,16.607,16.609v19.821A16.627,16.627,0,0,1,190.632,733.624Zm-19.821-45.053a8.632,8.632,0,0,0-8.623,8.623v19.821a8.633,8.633,0,0,0,8.623,8.623h19.821a8.633,8.633,0,0,0,8.622-8.623V697.194a8.632,8.632,0,0,0-8.622-8.623Z" transform="translate(-154.202 -680.585)" fill="url(#linear-gradient-7)"/>
        </g>
        <g id="Grupo_9" data-name="Grupo 9" transform="translate(0 252.422)">
          <path id="Trazado_9" data-name="Trazado 9" d="M128.907,796.842H109.083a16.625,16.625,0,0,1-16.607-16.607V760.412A16.625,16.625,0,0,1,109.083,743.8h19.824a16.625,16.625,0,0,1,16.606,16.607v19.823A16.625,16.625,0,0,1,128.907,796.842ZM109.083,751.79a8.631,8.631,0,0,0-8.622,8.622v19.823a8.632,8.632,0,0,0,8.622,8.622h19.824a8.631,8.631,0,0,0,8.62-8.622V760.412a8.631,8.631,0,0,0-8.62-8.622Z" transform="translate(-92.476 -743.805)" fill="url(#linear-gradient-8)"/>
        </g>
        <g id="Grupo_10" data-name="Grupo 10" transform="translate(82.153 252.422)">
          <path id="Trazado_10" data-name="Trazado 10" d="M190.632,796.842H170.811A16.626,16.626,0,0,1,154.2,780.235V760.412A16.626,16.626,0,0,1,170.811,743.8h19.821a16.626,16.626,0,0,1,16.607,16.607v19.823A16.626,16.626,0,0,1,190.632,796.842ZM170.811,751.79a8.632,8.632,0,0,0-8.623,8.622v19.823a8.632,8.632,0,0,0,8.623,8.622h19.821a8.632,8.632,0,0,0,8.622-8.622V760.412a8.631,8.631,0,0,0-8.622-8.622Z" transform="translate(-154.202 -743.805)" fill="url(#linear-gradient-9)"/>
        </g>
        <g id="Grupo_11" data-name="Grupo 11" transform="translate(0 336.563)">
          <path id="Trazado_11" data-name="Trazado 11" d="M128.907,860.061H109.083a16.626,16.626,0,0,1-16.607-16.607V823.632a16.626,16.626,0,0,1,16.607-16.607h19.824a16.626,16.626,0,0,1,16.606,16.607v19.821A16.626,16.626,0,0,1,128.907,860.061Zm-19.824-45.05a8.632,8.632,0,0,0-8.622,8.622v19.821a8.631,8.631,0,0,0,8.622,8.622h19.824a8.631,8.631,0,0,0,8.62-8.622V823.632a8.632,8.632,0,0,0-8.62-8.622Z" transform="translate(-92.476 -807.025)" fill="url(#linear-gradient-10)"/>
        </g>
        <g id="Grupo_12" data-name="Grupo 12" transform="translate(82.153 336.563)">
          <path id="Trazado_12" data-name="Trazado 12" d="M190.632,860.061H170.811A16.627,16.627,0,0,1,154.2,843.454V823.632a16.627,16.627,0,0,1,16.609-16.607h19.821a16.627,16.627,0,0,1,16.607,16.607v19.821A16.627,16.627,0,0,1,190.632,860.061Zm-19.821-45.05a8.633,8.633,0,0,0-8.623,8.622v19.821a8.632,8.632,0,0,0,8.623,8.622h19.821a8.631,8.631,0,0,0,8.622-8.622V823.632a8.632,8.632,0,0,0-8.622-8.622Z" transform="translate(-154.202 -807.025)" fill="url(#linear-gradient-11)"/>
        </g>
        <g id="Grupo_13" data-name="Grupo 13" transform="translate(0 420.704)">
          <path id="Trazado_13" data-name="Trazado 13" d="M128.907,923.281H109.083a16.626,16.626,0,0,1-16.607-16.607V886.852a16.626,16.626,0,0,1,16.607-16.607h19.824a16.626,16.626,0,0,1,16.606,16.607v19.821A16.626,16.626,0,0,1,128.907,923.281ZM109.083,878.23a8.632,8.632,0,0,0-8.622,8.622v19.821a8.631,8.631,0,0,0,8.622,8.622h19.824a8.631,8.631,0,0,0,8.62-8.622V886.852a8.631,8.631,0,0,0-8.62-8.622Z" transform="translate(-92.476 -870.245)" fill="url(#linear-gradient-12)"/>
        </g>
        <g id="Grupo_14" data-name="Grupo 14" transform="translate(82.153 420.704)">
          <path id="Trazado_14" data-name="Trazado 14" d="M190.632,923.281H170.811A16.627,16.627,0,0,1,154.2,906.674V886.852a16.627,16.627,0,0,1,16.609-16.607h19.821a16.627,16.627,0,0,1,16.607,16.607v19.821A16.627,16.627,0,0,1,190.632,923.281ZM170.811,878.23a8.632,8.632,0,0,0-8.623,8.622v19.821a8.632,8.632,0,0,0,8.623,8.622h19.821a8.631,8.631,0,0,0,8.622-8.622V886.852a8.632,8.632,0,0,0-8.622-8.622Z" transform="translate(-154.202 -870.245)" fill="url(#linear-gradient-13)"/>
        </g>
      </g>
      <g id="Grupo_26" data-name="Grupo 26" transform="translate(1333.143 657.898)">
        <g id="Grupo_16" data-name="Grupo 16">
          <path id="Trazado_15" data-name="Trazado 15" d="M1033.184,689.744H1013.36a16.627,16.627,0,0,1-16.607-16.609V653.314A16.627,16.627,0,0,1,1013.36,636.7h19.824a16.626,16.626,0,0,1,16.607,16.609v19.821A16.626,16.626,0,0,1,1033.184,689.744ZM1013.36,644.69a8.632,8.632,0,0,0-8.622,8.623v19.821a8.633,8.633,0,0,0,8.622,8.623h19.824a8.632,8.632,0,0,0,8.622-8.623V653.314a8.632,8.632,0,0,0-8.622-8.623Z" transform="translate(-996.753 -636.705)" fill="url(#linear-gradient-14)"/>
        </g>
        <g id="Grupo_17" data-name="Grupo 17" transform="translate(82.153)">
          <path id="Trazado_16" data-name="Trazado 16" d="M1094.912,689.744h-19.824a16.627,16.627,0,0,1-16.608-16.609V653.314a16.627,16.627,0,0,1,16.608-16.609h19.824a16.626,16.626,0,0,1,16.606,16.609v19.821A16.626,16.626,0,0,1,1094.912,689.744Zm-19.824-45.053a8.633,8.633,0,0,0-8.623,8.623v19.821a8.634,8.634,0,0,0,8.623,8.623h19.824a8.632,8.632,0,0,0,8.62-8.623V653.314a8.631,8.631,0,0,0-8.62-8.623Z" transform="translate(-1058.479 -636.705)" fill="url(#linear-gradient-15)"/>
        </g>
        <g id="Grupo_18" data-name="Grupo 18" transform="translate(0 84.141)">
          <path id="Trazado_17" data-name="Trazado 17" d="M1033.184,752.962H1013.36a16.626,16.626,0,0,1-16.607-16.607V716.532a16.626,16.626,0,0,1,16.607-16.607h19.824a16.625,16.625,0,0,1,16.607,16.607v19.823A16.625,16.625,0,0,1,1033.184,752.962ZM1013.36,707.91a8.631,8.631,0,0,0-8.622,8.622v19.823a8.631,8.631,0,0,0,8.622,8.622h19.824a8.631,8.631,0,0,0,8.622-8.622V716.532a8.631,8.631,0,0,0-8.622-8.622Z" transform="translate(-996.753 -699.925)" fill="url(#linear-gradient-16)"/>
        </g>
        <g id="Grupo_19" data-name="Grupo 19" transform="translate(82.153 84.141)">
          <path id="Trazado_18" data-name="Trazado 18" d="M1094.912,752.962h-19.824a16.626,16.626,0,0,1-16.608-16.607V716.532a16.626,16.626,0,0,1,16.608-16.607h19.824a16.625,16.625,0,0,1,16.606,16.607v19.823A16.625,16.625,0,0,1,1094.912,752.962Zm-19.824-45.052a8.633,8.633,0,0,0-8.623,8.622v19.823a8.633,8.633,0,0,0,8.623,8.622h19.824a8.631,8.631,0,0,0,8.62-8.622V716.532a8.631,8.631,0,0,0-8.62-8.622Z" transform="translate(-1058.479 -699.925)" fill="url(#linear-gradient-17)"/>
        </g>
        <g id="Grupo_20" data-name="Grupo 20" transform="translate(0 168.283)">
          <path id="Trazado_19" data-name="Trazado 19" d="M1033.184,816.182H1013.36a16.627,16.627,0,0,1-16.607-16.606V779.752a16.626,16.626,0,0,1,16.607-16.606h19.824a16.625,16.625,0,0,1,16.607,16.606v19.824A16.626,16.626,0,0,1,1033.184,816.182Zm-19.824-45.051a8.631,8.631,0,0,0-8.622,8.62v19.824a8.631,8.631,0,0,0,8.622,8.62h19.824a8.631,8.631,0,0,0,8.622-8.62V779.752a8.631,8.631,0,0,0-8.622-8.62Z" transform="translate(-996.753 -763.146)" fill="url(#linear-gradient-18)"/>
        </g>
        <g id="Grupo_21" data-name="Grupo 21" transform="translate(82.153 168.283)">
          <path id="Trazado_20" data-name="Trazado 20" d="M1094.912,816.182h-19.824a16.627,16.627,0,0,1-16.608-16.606V779.752a16.626,16.626,0,0,1,16.608-16.606h19.824a16.624,16.624,0,0,1,16.606,16.606v19.824A16.625,16.625,0,0,1,1094.912,816.182Zm-19.824-45.051a8.632,8.632,0,0,0-8.623,8.62v19.824a8.632,8.632,0,0,0,8.623,8.62h19.824a8.631,8.631,0,0,0,8.62-8.62V779.752a8.631,8.631,0,0,0-8.62-8.62Z" transform="translate(-1058.479 -763.146)" fill="url(#linear-gradient-19)"/>
        </g>
        <g id="Grupo_22" data-name="Grupo 22" transform="translate(0 252.423)">
          <path id="Trazado_21" data-name="Trazado 21" d="M1033.184,879.4H1013.36a16.627,16.627,0,0,1-16.607-16.609V842.972a16.627,16.627,0,0,1,16.607-16.607h19.824a16.626,16.626,0,0,1,16.607,16.607v19.821A16.626,16.626,0,0,1,1033.184,879.4Zm-19.824-45.052a8.631,8.631,0,0,0-8.622,8.622v19.821a8.632,8.632,0,0,0,8.622,8.623h19.824a8.632,8.632,0,0,0,8.622-8.623V842.972a8.631,8.631,0,0,0-8.622-8.622Z" transform="translate(-996.753 -826.365)" fill="url(#linear-gradient-20)"/>
        </g>
        <g id="Grupo_23" data-name="Grupo 23" transform="translate(82.153 252.423)">
          <path id="Trazado_22" data-name="Trazado 22" d="M1094.912,879.4h-19.824a16.627,16.627,0,0,1-16.608-16.609V842.972a16.627,16.627,0,0,1,16.608-16.607h19.824a16.626,16.626,0,0,1,16.606,16.607v19.821A16.626,16.626,0,0,1,1094.912,879.4Zm-19.824-45.052a8.633,8.633,0,0,0-8.623,8.622v19.821a8.633,8.633,0,0,0,8.623,8.623h19.824a8.631,8.631,0,0,0,8.62-8.623V842.972a8.631,8.631,0,0,0-8.62-8.622Z" transform="translate(-1058.479 -826.365)" fill="url(#linear-gradient-21)"/>
        </g>
        <g id="Grupo_24" data-name="Grupo 24" transform="translate(0 336.564)">
          <path id="Trazado_23" data-name="Trazado 23" d="M1033.184,942.622H1013.36a16.627,16.627,0,0,1-16.607-16.609v-19.82a16.627,16.627,0,0,1,16.607-16.609h19.824a16.626,16.626,0,0,1,16.607,16.609v19.82A16.626,16.626,0,0,1,1033.184,942.622ZM1013.36,897.57a8.632,8.632,0,0,0-8.622,8.623v19.82a8.633,8.633,0,0,0,8.622,8.623h19.824a8.633,8.633,0,0,0,8.622-8.623v-19.82a8.632,8.632,0,0,0-8.622-8.623Z" transform="translate(-996.753 -889.585)" fill="url(#linear-gradient-22)"/>
        </g>
        <g id="Grupo_25" data-name="Grupo 25" transform="translate(82.153 336.564)">
          <path id="Trazado_24" data-name="Trazado 24" d="M1094.912,942.622h-19.824a16.627,16.627,0,0,1-16.608-16.609v-19.82a16.627,16.627,0,0,1,16.608-16.609h19.824a16.626,16.626,0,0,1,16.606,16.609v19.82A16.626,16.626,0,0,1,1094.912,942.622Zm-19.824-45.052a8.633,8.633,0,0,0-8.623,8.623v19.82a8.634,8.634,0,0,0,8.623,8.623h19.824a8.632,8.632,0,0,0,8.62-8.623v-19.82a8.631,8.631,0,0,0-8.62-8.623Z" transform="translate(-1058.479 -889.585)" fill="url(#linear-gradient-23)"/>
        </g>
      </g>
      <g id="Grupo_33" data-name="Grupo 33" transform="translate(353.428 801.458)">
        <g id="Grupo_27" data-name="Grupo 27">
          <path id="Trazado_25" data-name="Trazado 25" d="M292,790.568H275.273a14.652,14.652,0,0,1-14.636-14.635V759.206a14.653,14.653,0,0,1,14.636-14.636H292a14.653,14.653,0,0,1,14.637,14.636v16.727A14.652,14.652,0,0,1,292,790.568Zm-16.724-38.012a6.658,6.658,0,0,0-6.651,6.651v16.727a6.657,6.657,0,0,0,6.651,6.649H292a6.658,6.658,0,0,0,6.652-6.649V759.206A6.659,6.659,0,0,0,292,752.555Z" transform="translate(-260.637 -744.57)" fill="url(#linear-gradient-24)"/>
        </g>
        <g id="Grupo_28" data-name="Grupo 28" transform="translate(69.317)">
          <path id="Trazado_26" data-name="Trazado 26" d="M344.08,790.568H327.355a14.652,14.652,0,0,1-14.636-14.635V759.206a14.653,14.653,0,0,1,14.636-14.636H344.08a14.653,14.653,0,0,1,14.636,14.636v16.727A14.652,14.652,0,0,1,344.08,790.568Zm-16.724-38.012a6.658,6.658,0,0,0-6.651,6.651v16.727a6.657,6.657,0,0,0,6.651,6.649H344.08a6.657,6.657,0,0,0,6.651-6.649V759.206a6.658,6.658,0,0,0-6.651-6.651Z" transform="translate(-312.719 -744.57)" fill="url(#linear-gradient-25)"/>
        </g>
        <g id="Grupo_29" data-name="Grupo 29" transform="translate(0 70.994)">
          <path id="Trazado_27" data-name="Trazado 27" d="M292,843.91H275.273a14.653,14.653,0,0,1-14.636-14.636V812.548a14.653,14.653,0,0,1,14.636-14.636H292a14.654,14.654,0,0,1,14.637,14.636v16.726A14.653,14.653,0,0,1,292,843.91ZM275.273,805.9a6.657,6.657,0,0,0-6.651,6.651v16.726a6.658,6.658,0,0,0,6.651,6.651H292a6.659,6.659,0,0,0,6.652-6.651V812.548A6.658,6.658,0,0,0,292,805.9Z" transform="translate(-260.637 -797.912)" fill="url(#linear-gradient-26)"/>
        </g>
        <g id="Grupo_30" data-name="Grupo 30" transform="translate(69.317 70.994)">
          <path id="Trazado_28" data-name="Trazado 28" d="M344.08,843.91H327.355a14.653,14.653,0,0,1-14.636-14.636V812.548a14.653,14.653,0,0,1,14.636-14.636H344.08a14.653,14.653,0,0,1,14.636,14.636v16.726A14.653,14.653,0,0,1,344.08,843.91ZM327.355,805.9a6.657,6.657,0,0,0-6.651,6.651v16.726a6.658,6.658,0,0,0,6.651,6.651H344.08a6.658,6.658,0,0,0,6.651-6.651V812.548a6.657,6.657,0,0,0-6.651-6.651Z" transform="translate(-312.719 -797.912)" fill="url(#linear-gradient-27)"/>
        </g>
        <g id="Grupo_31" data-name="Grupo 31" transform="translate(0 141.988)">
          <path id="Trazado_29" data-name="Trazado 29" d="M292,897.251H275.273a14.653,14.653,0,0,1-14.636-14.638V865.89a14.653,14.653,0,0,1,14.636-14.636H292a14.653,14.653,0,0,1,14.637,14.636v16.723A14.654,14.654,0,0,1,292,897.251ZM275.273,859.24a6.657,6.657,0,0,0-6.651,6.651v16.723a6.658,6.658,0,0,0,6.651,6.652H292a6.659,6.659,0,0,0,6.652-6.652V865.89A6.658,6.658,0,0,0,292,859.24Z" transform="translate(-260.637 -851.254)" fill="url(#linear-gradient-28)"/>
        </g>
        <g id="Grupo_32" data-name="Grupo 32" transform="translate(69.317 141.988)">
          <path id="Trazado_30" data-name="Trazado 30" d="M344.08,897.251H327.355a14.653,14.653,0,0,1-14.636-14.638V865.89a14.653,14.653,0,0,1,14.636-14.636H344.08a14.653,14.653,0,0,1,14.636,14.636v16.723A14.653,14.653,0,0,1,344.08,897.251ZM327.355,859.24a6.657,6.657,0,0,0-6.651,6.651v16.723a6.658,6.658,0,0,0,6.651,6.652H344.08a6.658,6.658,0,0,0,6.651-6.652V865.89a6.657,6.657,0,0,0-6.651-6.651Z" transform="translate(-312.719 -851.254)" fill="url(#linear-gradient-29)"/>
        </g>
      </g>
      <g id="Grupo_38" data-name="Grupo 38" transform="translate(839.391 940.588)">
        <g id="Grupo_34" data-name="Grupo 34">
          <path id="Trazado_31" data-name="Trazado 31" d="M657.131,895.105H640.406a14.653,14.653,0,0,1-14.638-14.635V863.743a14.654,14.654,0,0,1,14.638-14.637h16.724a14.654,14.654,0,0,1,14.636,14.637V880.47A14.653,14.653,0,0,1,657.131,895.105Zm-16.724-38.014a6.66,6.66,0,0,0-6.652,6.652V880.47a6.658,6.658,0,0,0,6.652,6.649h16.724a6.657,6.657,0,0,0,6.651-6.649V863.743a6.659,6.659,0,0,0-6.651-6.652Z" transform="translate(-625.769 -849.106)" fill="url(#linear-gradient-30)"/>
        </g>
        <g id="Grupo_35" data-name="Grupo 35" transform="translate(69.317)">
          <path id="Trazado_32" data-name="Trazado 32" d="M709.213,895.105H692.488a14.652,14.652,0,0,1-14.638-14.635V863.743a14.654,14.654,0,0,1,14.638-14.637h16.724a14.653,14.653,0,0,1,14.636,14.637V880.47A14.652,14.652,0,0,1,709.213,895.105Zm-16.724-38.014a6.66,6.66,0,0,0-6.652,6.652V880.47a6.658,6.658,0,0,0,6.652,6.649h16.724a6.657,6.657,0,0,0,6.651-6.649V863.743a6.659,6.659,0,0,0-6.651-6.652Z" transform="translate(-677.851 -849.106)" fill="url(#linear-gradient-31)"/>
        </g>
        <g id="Grupo_36" data-name="Grupo 36" transform="translate(0 70.994)">
          <path id="Trazado_33" data-name="Trazado 33" d="M657.131,948.447H640.406a14.654,14.654,0,0,1-14.638-14.636V917.084a14.654,14.654,0,0,1,14.638-14.636h16.724a14.654,14.654,0,0,1,14.636,14.636v16.727A14.654,14.654,0,0,1,657.131,948.447Zm-16.724-38.014a6.659,6.659,0,0,0-6.652,6.651v16.727a6.658,6.658,0,0,0,6.652,6.651h16.724a6.657,6.657,0,0,0,6.651-6.651V917.084a6.658,6.658,0,0,0-6.651-6.651Z" transform="translate(-625.769 -902.448)" fill="url(#linear-gradient-32)"/>
        </g>
        <g id="Grupo_37" data-name="Grupo 37" transform="translate(69.317 70.994)">
          <path id="Trazado_34" data-name="Trazado 34" d="M709.213,948.447H692.488a14.654,14.654,0,0,1-14.638-14.636V917.084a14.654,14.654,0,0,1,14.638-14.636h16.724a14.653,14.653,0,0,1,14.636,14.636v16.727A14.653,14.653,0,0,1,709.213,948.447Zm-16.724-38.014a6.659,6.659,0,0,0-6.652,6.651v16.727a6.658,6.658,0,0,0,6.652,6.651h16.724a6.657,6.657,0,0,0,6.651-6.651V917.084a6.658,6.658,0,0,0-6.651-6.651Z" transform="translate(-677.851 -902.448)" fill="url(#linear-gradient-33)"/>
        </g>
      </g>
      <g id="Grupo_41" data-name="Grupo 41" transform="translate(1068.957 935.619)">
        <g id="Grupo_39" data-name="Grupo 39">
          <path id="Trazado_35" data-name="Trazado 35" d="M822.46,881.434H810.108a11.866,11.866,0,0,1-11.853-11.853V857.227a11.867,11.867,0,0,1,11.853-11.855H822.46a11.868,11.868,0,0,1,11.854,11.855v12.354A11.867,11.867,0,0,1,822.46,881.434Zm-12.352-28.076a3.873,3.873,0,0,0-3.868,3.869v12.354a3.873,3.873,0,0,0,3.868,3.868H822.46a3.873,3.873,0,0,0,3.869-3.868V857.227a3.873,3.873,0,0,0-3.869-3.869Z" transform="translate(-798.255 -845.373)" fill="url(#linear-gradient-34)"/>
        </g>
        <g id="Grupo_40" data-name="Grupo 40" transform="translate(51.195)">
          <path id="Trazado_36" data-name="Trazado 36" d="M860.926,881.434H848.574a11.866,11.866,0,0,1-11.853-11.853V857.227a11.867,11.867,0,0,1,11.853-11.855h12.352a11.869,11.869,0,0,1,11.855,11.855v12.354A11.867,11.867,0,0,1,860.926,881.434Zm-12.352-28.076a3.872,3.872,0,0,0-3.868,3.869v12.354a3.872,3.872,0,0,0,3.868,3.868h12.352a3.873,3.873,0,0,0,3.869-3.868V857.227a3.873,3.873,0,0,0-3.869-3.869Z" transform="translate(-836.721 -845.373)" fill="url(#linear-gradient-35)"/>
        </g>
      </g>
      <g id="Grupo_43" data-name="Grupo 43" transform="translate(1168.67 935.619)">
        <g id="Grupo_42" data-name="Grupo 42">
          <path id="Trazado_37" data-name="Trazado 37" d="M897.38,881.434H885.028a11.866,11.866,0,0,1-11.853-11.853V857.227a11.867,11.867,0,0,1,11.853-11.855H897.38a11.869,11.869,0,0,1,11.855,11.855v12.354A11.867,11.867,0,0,1,897.38,881.434Zm-12.352-28.076a3.873,3.873,0,0,0-3.868,3.869v12.354a3.873,3.873,0,0,0,3.868,3.868H897.38a3.873,3.873,0,0,0,3.869-3.868V857.227a3.873,3.873,0,0,0-3.869-3.869Z" transform="translate(-873.175 -845.373)" fill="url(#linear-gradient-36)"/>
        </g>
      </g>
      <g id="Grupo_44" data-name="Grupo 44" transform="translate(600.351 985.619)">
        <path id="Trazado_38" data-name="Trazado 38" d="M533.635,943.6H464.07a17.926,17.926,0,0,1-17.906-17.905V900.849a17.927,17.927,0,0,1,17.906-17.908h69.565a17.927,17.927,0,0,1,17.906,17.908v24.844A17.926,17.926,0,0,1,533.635,943.6ZM464.07,890.926a9.933,9.933,0,0,0-9.921,9.922v24.844a9.932,9.932,0,0,0,9.921,9.919h69.565a9.932,9.932,0,0,0,9.921-9.919V900.849a9.933,9.933,0,0,0-9.921-9.922Z" transform="translate(-446.164 -882.941)" fill="url(#linear-gradient-37)"/>
      </g>
      <g id="Grupo_45" data-name="Grupo 45" transform="translate(649.046 990.607)">
        <rect id="Rectángulo_2" data-name="Rectángulo 2" width="7.986" height="52.67" fill="url(#linear-gradient-38)"/>
      </g>
      <g id="Grupo_46" data-name="Grupo 46" transform="translate(1582.665 954.318)">
        <path id="Trazado_39" data-name="Trazado 39" d="M1327.921,955.548H1211.507a27.305,27.305,0,0,1-27.275-27.275V886.7a27.306,27.306,0,0,1,27.275-27.276h116.413A27.307,27.307,0,0,1,1355.2,886.7v41.575A27.307,27.307,0,0,1,1327.921,955.548Zm-116.413-88.14a19.311,19.311,0,0,0-19.289,19.29v41.575a19.31,19.31,0,0,0,19.289,19.289h116.413a19.311,19.311,0,0,0,19.292-19.289V886.7a19.313,19.313,0,0,0-19.292-19.29Z" transform="translate(-1184.233 -859.422)" fill="url(#linear-gradient-39)"/>
      </g>
      <g id="Grupo_47" data-name="Grupo 47" transform="translate(1664.153 959.974)">
        <rect id="Rectángulo_3" data-name="Rectángulo 3" width="7.986" height="88.141" fill="url(#linear-gradient-40)"/>
      </g>
      <g id="Grupo_48" data-name="Grupo 48" transform="translate(599.351 932.948)">
        <path id="Trazado_40" data-name="Trazado 40" d="M535.369,876.2h-73.54a16.416,16.416,0,1,1,0-32.831h73.54a16.416,16.416,0,0,1,0,32.831Zm-73.54-24.846a8.43,8.43,0,1,0,0,16.86h73.54a8.43,8.43,0,0,0,0-16.86Z" transform="translate(-445.413 -843.366)" fill="url(#linear-gradient-41)"/>
      </g>
      <g id="Grupo_49" data-name="Grupo 49" transform="translate(649.046 939.923)">
        <rect id="Rectángulo_4" data-name="Rectángulo 4" width="7.986" height="21.864" fill="url(#linear-gradient-42)"/>
      </g>
      <g id="Grupo_50" data-name="Grupo 50" transform="translate(1582.738 543.482)">
        <path id="Trazado_41" data-name="Trazado 41" d="M1327.642,599H1208.419a24.132,24.132,0,0,1,0-48.265h119.223a24.132,24.132,0,0,1,0,48.265Zm-119.223-40.279a16.147,16.147,0,0,0,0,32.294h119.223a16.147,16.147,0,0,0,0-32.294Z" transform="translate(-1184.288 -550.738)" fill="url(#linear-gradient-43)"/>
      </g>
      <g id="Grupo_51" data-name="Grupo 51" transform="translate(1582.738 612.052)">
        <path id="Trazado_42" data-name="Trazado 42" d="M1327.642,650.521H1208.419a24.132,24.132,0,0,1,0-48.263h119.223a24.132,24.132,0,1,1,0,48.263Zm-119.223-40.278a16.146,16.146,0,0,0,0,32.292h119.223a16.146,16.146,0,1,0,0-32.292Z" transform="translate(-1184.288 -602.258)" fill="url(#linear-gradient-44)"/>
      </g>
      <g id="Grupo_52" data-name="Grupo 52" transform="translate(1582.738 680.62)">
        <path id="Trazado_43" data-name="Trazado 43" d="M1327.642,702.04H1208.419a24.132,24.132,0,0,1,0-48.263h119.223a24.132,24.132,0,1,1,0,48.263Zm-119.223-40.278a16.146,16.146,0,0,0,0,32.292h119.223a16.146,16.146,0,1,0,0-32.292Z" transform="translate(-1184.288 -653.777)" fill="url(#linear-gradient-45)"/>
      </g>
      <g id="Grupo_53" data-name="Grupo 53" transform="translate(1582.738 749.187)">
        <path id="Trazado_44" data-name="Trazado 44" d="M1327.642,753.561H1208.419a24.132,24.132,0,0,1,0-48.265h119.223a24.132,24.132,0,0,1,0,48.265Zm-119.223-40.279a16.147,16.147,0,0,0,0,32.294h119.223a16.147,16.147,0,0,0,0-32.294Z" transform="translate(-1184.288 -705.296)" fill="url(#linear-gradient-46)"/>
      </g>
      <g id="Grupo_54" data-name="Grupo 54" transform="translate(1582.738 817.755)">
        <path id="Trazado_45" data-name="Trazado 45" d="M1327.642,805.079H1208.419a24.132,24.132,0,0,1,0-48.265h119.223a24.132,24.132,0,0,1,0,48.265ZM1208.419,764.8a16.147,16.147,0,0,0,0,32.294h119.223a16.147,16.147,0,0,0,0-32.294Z" transform="translate(-1184.288 -756.815)" fill="url(#linear-gradient-47)"/>
      </g>
      <g id="Grupo_55" data-name="Grupo 55" transform="translate(1582.738 886.325)">
        <path id="Trazado_46" data-name="Trazado 46" d="M1327.642,856.6H1208.419a24.132,24.132,0,0,1,0-48.263h119.223a24.132,24.132,0,1,1,0,48.263ZM1208.419,816.32a16.146,16.146,0,0,0,0,32.292h119.223a16.146,16.146,0,1,0,0-32.292Z" transform="translate(-1184.288 -808.335)" fill="url(#linear-gradient-48)"/>
      </g>
      <g id="Grupo_56" data-name="Grupo 56" transform="translate(1105.19 982.638)">
        <path id="Trazado_47" data-name="Trazado 47" d="M869.224,947.32H843.385a17.926,17.926,0,0,1-17.906-17.9V898.607A17.927,17.927,0,0,1,843.385,880.7h25.839a17.926,17.926,0,0,1,17.906,17.906v30.808A17.925,17.925,0,0,1,869.224,947.32Zm-25.839-58.634a9.932,9.932,0,0,0-9.921,9.921v30.808a9.932,9.932,0,0,0,9.921,9.919h25.839a9.932,9.932,0,0,0,9.921-9.919V898.607a9.932,9.932,0,0,0-9.921-9.921Z" transform="translate(-825.479 -880.701)" fill="url(#linear-gradient-49)"/>
      </g>
      <path id="Trazado_48" data-name="Trazado 48" d="M532,268l22.91,22.91L577.819,268" transform="translate(591.244 80.701)" fill="none" stroke="#083971" stroke-width="9"/>
    </g>
  </g>
</svg>
