<svg xmlns="http://www.w3.org/2000/svg" xmlns:xlink="http://www.w3.org/1999/xlink" width="32.499" height="32.499" viewBox="0 0 32.499 32.499">
  <defs>
    <clipPath id="clip-path">
      <rect width="32.499" height="32.499" fill="none"/>
    </clipPath>
  </defs>
  <g id="Phone" clip-path="url(#clip-path)">
    <rect id="Rectángulo_320" data-name="Rectángulo 320" width="32.499" height="32.499" fill="none"/>
    <path id="Trazado_110" data-name="Trazado 110" d="M18.861,23.214l3.482-3.192a1.066,1.066,0,0,1,.871-.29l.58.29,8.125,3.772c.58.29.58.58.58,1.161-.29,2.321-.871,4.062-2.321,5.223A8.312,8.312,0,0,1,24.084,32.5a17.68,17.68,0,0,1-8.125-2.031,38.039,38.039,0,0,1-8.125-5.8,49.425,49.425,0,0,1-4.353-6.384A40.109,40.109,0,0,1,.58,11.9,17.857,17.857,0,0,1,0,6.384,7.625,7.625,0,0,1,2.031,2.031C3.192.871,4.933.29,7.544,0A1.508,1.508,0,0,1,8.705.58l4.353,8.125a1.013,1.013,0,0,0,.29.58,1.066,1.066,0,0,1-.29.871L9.285,13.638a1.3,1.3,0,0,0,0,1.451,27.71,27.71,0,0,0,3.482,4.643A29.3,29.3,0,0,0,17.41,23.5C17.991,23.794,18.571,23.794,18.861,23.214Z" transform="translate(0 0)" fill="#2699fb"/>
  </g>
</svg>
