<svg xmlns="http://www.w3.org/2000/svg" xmlns:xlink="http://www.w3.org/1999/xlink" width="33" height="33" viewBox="0 0 33 33">
  <defs>
    <clipPath id="clip-path">
      <rect width="33" height="33" fill="none"/>
    </clipPath>
  </defs>
  <g id="Time" clip-path="url(#clip-path)">
    <path id="Trazado_13" data-name="Trazado 13" d="M4.95,4.95A14.979,14.979,0,0,1,16.5,0,14.979,14.979,0,0,1,28.05,4.95,14.979,14.979,0,0,1,33,16.5a14.979,14.979,0,0,1-4.95,11.55A14.979,14.979,0,0,1,16.5,33,14.979,14.979,0,0,1,4.95,28.05C1.925,24.75,0,21.175,0,16.5A14.979,14.979,0,0,1,4.95,4.95ZM23.925,23.925,25.85,22l-6.875-6.875-2.475-11H13.75V16.5a2.5,2.5,0,0,0,.825,1.925.96.96,0,0,0,.55.275Z" fill="#2699fb"/>
  </g>
</svg>
